<?xml version="1.0" encoding="UTF-8" standalone="no"?>
<svg
   xmlns:dc="http://purl.org/dc/elements/1.1/"
   xmlns:cc="http://creativecommons.org/ns#"
   xmlns:rdf="http://www.w3.org/1999/02/22-rdf-syntax-ns#"
   xmlns:svg="http://www.w3.org/2000/svg"
   xmlns="http://www.w3.org/2000/svg"
   xmlns:sodipodi="http://sodipodi.sourceforge.net/DTD/sodipodi-0.dtd"
   xmlns:inkscape="http://www.inkscape.org/namespaces/inkscape"
   inkscape:version="1.0 (4035a4f, 2020-05-01)"
   sodipodi:docname="apache-impala.svg"
   id="svg28"
   version="1.1"
   preserveAspectRatio="xMidYMid"
   viewBox="0 0 7.3563218 7.356"
   height="30"
   width="30">
  <metadata
     id="metadata34">
    <rdf:RDF>
      <cc:Work
         rdf:about="">
        <dc:format>image/svg+xml</dc:format>
        <dc:type
           rdf:resource="http://purl.org/dc/dcmitype/StillImage" />
        <dc:title></dc:title>
      </cc:Work>
    </rdf:RDF>
  </metadata>
  <defs
     id="defs32" />
  <sodipodi:namedview
     inkscape:current-layer="svg28"
     inkscape:window-maximized="0"
     inkscape:window-y="25"
     inkscape:window-x="66"
     inkscape:cy="28.298134"
     inkscape:cx="15.766027"
     inkscape:zoom="8.9103427"
     showgrid="false"
     id="namedview30"
     inkscape:window-height="823"
     inkscape:window-width="1200"
     inkscape:pageshadow="2"
     inkscape:pageopacity="0"
     guidetolerance="10"
     gridtolerance="10"
     objecttolerance="10"
     borderopacity="1"
     bordercolor="#666666"
     pagecolor="#ffffff" />
  <path
     style="stroke-width:0.0120137"
     id="path26"
     fill="#2c6791"
     d="m 4.4643408,0.18758793 c 0.041568,0.0501693 0.078269,0.0992574 0.1171819,0.15140895 0.5066307,0.67903962 0.6588806,1.49238072 0.5114602,2.32063082 -0.00937,0.052668 -0.037122,0.054939 -0.076455,0.09289 C 4.7732497,2.987254 4.5390662,3.2305319 4.3936401,3.5394768 4.3325263,3.6693331 4.3014948,3.8151557 4.2717488,3.9568576 c -0.00889,0.042384 0.021324,0.1219993 0.054578,0.1364999 0.037339,0.016279 0.1157402,-0.00593 0.146219,-0.039057 C 4.6275833,3.8858324 4.7768778,3.7116094 4.9202136,3.5330014 5.0180173,3.4111342 5.1027381,3.278767 5.2025361,3.1556263 5.2295189,3.4250941 5.2248456,3.6899367 5.1013805,3.9314365 5.0494212,4.0852362 4.9824807,4.103437 4.8989493,4.1960988 c -0.095053,0.07129 -0.2045697,0.1797133 -0.2718706,0.2702247 -0.1051561,0.1685405 -0.099558,0.3047161 0.058026,0.422787 0.0099,0.00605 0.061823,0.030935 0.078642,0.034672 -0.035645,0.023859 -0.067012,0.031632 -0.1486938,0.055383 -0.00291,0.1224559 -0.1049519,0.2040892 -0.134794,0.2613226 -0.014116,0.054867 -0.019378,0.063156 -0.023847,0.12433 C 4.4178959,5.8911153 4.3401671,6.4606619 4.1443915,6.9559997 4.0782075,7.123447 3.9984367,7.2283147 3.8326954,7.29773 3.8128724,7.30604 3.7200067,7.354219 3.708065,7.356766 3.748864,7.291964 3.756601,7.1962626 3.702535,7.1228227 3.663731,7.0701187 3.5088858,7.0730617 3.4588006,7.0248507 c 0.00954,-0.00219 0.075987,0.00284 0.085442,0.00315 0.078954,0.00272 0.1536555,-0.00129 0.176818,-0.098513 0.018573,-0.077981 -0.022946,-0.1558661 -0.101516,-0.2105165 -0.053389,-0.037158 -0.090211,-0.047706 -0.1358151,-0.094248 -0.011029,-0.011257 -0.02768,-0.073176 -0.016134,-0.1140103 a 0.00768878,0.00768878 0 0 1 0.012566,-0.0038 c 0.051491,0.046169 0.1186716,0.095077 0.1616807,0.1464953 0.027596,0.025253 0.062411,0.05423 0.086451,0.05393 0.025397,-3.123e-4 0.040018,-0.031188 0.069716,-0.052152 0.06837,-0.060849 0.092626,-0.090487 0.135671,-0.1736464 0.00746,-0.045735 -0.00877,-0.1233552 -0.023064,-0.1796996 C 3.8507639,6.066131 3.8318423,5.8209309 3.8933526,5.5844528 3.937443,5.4149632 4.000515,5.2418814 4.0946425,5.0959027 4.2451985,4.86244 4.2521545,4.648836 4.0944143,4.4252606 3.8248023,4.0431041 3.8558217,3.6569109 4.0742793,3.2652636 4.2299531,2.9861487 4.4302459,2.7432192 4.6520192,2.5149945 4.6979116,2.4677566 4.7278619,2.4629391 4.7405363,2.3982692 4.9029018,1.6498142 4.8030197,0.89077518 4.4455153,0.2252029 4.4296812,0.1964901 4.2960646,0.01096217 4.2940463,4.7418815e-4 4.2982511,-0.00234904 4.460124,0.19041115 4.4643288,0.18758793 Z M 3.0022707,4.2349152 C 2.9936208,4.1254461 2.9925396,4.0221521 2.976225,3.921333 2.9111106,3.5188973 2.6977709,3.1950554 2.4254198,2.9039869 2.4037951,2.8808605 2.3838283,2.8546585 2.358179,2.8370584 2.2221356,2.7436998 2.1806522,2.606419 2.163028,2.4514179 2.0648399,1.5876192 2.2843306,0.821456 2.8582021,0.16241918 2.8620225,0.15802216 2.9756483,0.00977281 2.9941735,0.00245645 2.8332496,0.28291682 2.6417389,0.55685374 2.5509151,1.0256412 c -0.087928,0.4538665 -0.088866,0.9039967 0.00608,1.3546915 0.0097,0.046013 0.04343,0.091773 0.077056,0.1271653 C 2.8724144,2.7584286 3.0968428,3.0214811 3.233607,3.3419712 3.299202,3.4956267 3.3434364,3.6644796 3.3624421,3.8304372 3.3882236,4.0555743 3.248552,4.20058 3.0022947,4.2349152 Z M 2.7599539,4.9433404 C 2.9774744,4.7986111 3.1387826,4.8435905 3.2298106,5.0408078 3.3266412,5.2505914 3.3882116,5.553121 3.3988197,5.7843131 3.3440371,5.650312 3.2679542,5.4379935 3.2145292,5.3034518 3.1894205,5.2401995 3.1562626,5.194247 3.0784978,5.1956647 3.0057907,5.1969862 2.957868,5.1544095 2.94213,5.0863398 2.9348977,5.055044 2.9262359,5.0081905 2.9072542,4.9870103 2.875622,4.951714 2.8233383,4.9510172 2.7599539,4.9433404 Z M 2.6840872,4.2554346 C 2.400203,4.0654136 2.1948284,3.8219555 2.1559399,3.459093 2.3121904,3.5261295 2.5955461,3.9476551 2.6840993,4.2554346 Z" />
</svg>
