<?xml version="1.0" encoding="UTF-8" standalone="no"?>
<svg
   xmlns:dc="http://purl.org/dc/elements/1.1/"
   xmlns:cc="http://creativecommons.org/ns#"
   xmlns:rdf="http://www.w3.org/1999/02/22-rdf-syntax-ns#"
   xmlns:svg="http://www.w3.org/2000/svg"
   xmlns="http://www.w3.org/2000/svg"
   xmlns:sodipodi="http://sodipodi.sourceforge.net/DTD/sodipodi-0.dtd"
   xmlns:inkscape="http://www.inkscape.org/namespaces/inkscape"
   inkscape:version="1.0 (4035a4f, 2020-05-01)"
   sodipodi:docname="Arch_Amazon-Simple-Storage-Service_64.svg"
   id="svg33"
   version="1.1"
   viewBox="0 0 30 30"
   height="30"
   width="30">
  <metadata
     id="metadata39">
    <rdf:RDF>
      <cc:Work
         rdf:about="">
        <dc:format>image/svg+xml</dc:format>
        <dc:type
           rdf:resource="http://purl.org/dc/dcmitype/StillImage" />
        <dc:title>Icon-Architecture/64/Arch_Amazon-Simple-Storage-Service_64</dc:title>
      </cc:Work>
    </rdf:RDF>
  </metadata>
  <defs
     id="defs37" />
  <sodipodi:namedview
     inkscape:current-layer="svg33"
     inkscape:window-maximized="0"
     inkscape:window-y="103"
     inkscape:window-x="125"
     inkscape:cy="25.03751"
     inkscape:cx="12.828875"
     inkscape:zoom="7.6653665"
     showgrid="false"
     id="namedview35"
     inkscape:window-height="713"
     inkscape:window-width="1291"
     inkscape:pageshadow="2"
     inkscape:pageopacity="0"
     guidetolerance="10"
     gridtolerance="10"
     objecttolerance="10"
     borderopacity="1"
     bordercolor="#666666"
     pagecolor="#ffffff" />
  <title
     id="title26">Icon-Architecture/64/Arch_Amazon-Simple-Storage-Service_64</title>
  <g
     transform="matrix(0.375,0,0,0.375,0,0.02177813)"
     fill-rule="evenodd"
     fill="none"
     stroke-width="1"
     stroke="none"
     id="Icon-Architecture/64/Arch_Amazon-Simple-Storage-Service_64">
    <g
       fill="#7aa116"
       id="Icon-Architecture-BG/64/Storage">
      <rect
         height="80"
         width="80"
         y="0"
         x="0"
         id="Rectangle" />
    </g>
    <g
       fill="#ffffff"
       transform="translate(12.9999,11.9996)"
       id="Icon-Service/64/Amazon-Simple-Storage-Service_64">
      <path
         id="Amazon-Simple-Storage-Service-Icon_64_Squid"
         d="m 47.836,30.893 0.384,-2.704 c 3.541,2.121 3.587,2.997 3.586013,3.021 C 51.8,31.215 51.196,31.719 47.836,30.893 Z m -1.943,-0.54 c -6.12,-1.852 -14.643,-5.762 -18.092,-7.392 0,-0.014 0.004,-0.027 0.004,-0.041 0,-1.325 -1.078,-2.403 -2.404,-2.403 -1.324,0 -2.402,1.078 -2.402,2.403 0,1.325 1.078,2.403 2.402,2.403 0.582,0 1.11,-0.217 1.527,-0.562 4.058,1.921 12.515,5.774 18.68,7.594 L 43.17,49.561 c -0.007,0.047 -0.01,0.094 -0.01,0.141 C 43.16,51.217 36.453,54 25.494,54 14.419,54 7.641,51.217 7.641,49.702 7.641,49.656 7.638,49.611 7.632,49.566 L 2.538,12.359 C 6.947,15.394 16.43,17 25.5,17 34.556,17 44.023,15.4 48.441,12.374 Z M 2,8.478 C 2.072,7.162 9.634,2 25.5,2 41.364,2 48.927,7.161 49,8.478 V 8.927 C 48.13,11.878 38.33,15 25.5,15 12.648,15 2.843,11.868 2,8.913 Z M 51,8.5 C 51,5.035 41.066,0 25.5,0 9.934,0 0,5.035 0,8.5 L 0.094,9.254 5.642,49.778 C 5.775,54.31 17.861,56 25.494,56 c 9.472,0 19.535,-2.178 19.665,-6.219 l 2.396,-16.897 c 1.333,0.319 2.43,0.482 3.311,0.482 1.183,0 1.983,-0.289 2.468,-0.867 0.398,-0.474 0.55,-1.048 0.436,-1.659 -0.259,-1.384 -1.902,-2.876 -5.248,-4.785 L 50.898,9.293 Z" />
    </g>
  </g>
</svg>
