<?xml version="1.0" encoding="UTF-8" standalone="no"?>
<svg
   xmlns:dc="http://purl.org/dc/elements/1.1/"
   xmlns:cc="http://creativecommons.org/ns#"
   xmlns:rdf="http://www.w3.org/1999/02/22-rdf-syntax-ns#"
   xmlns:svg="http://www.w3.org/2000/svg"
   xmlns="http://www.w3.org/2000/svg"
   xmlns:sodipodi="http://sodipodi.sourceforge.net/DTD/sodipodi-0.dtd"
   xmlns:inkscape="http://www.inkscape.org/namespaces/inkscape"
   inkscape:version="1.0 (4035a4f, 2020-05-01)"
   sodipodi:docname="Arch_AWS-Glue_32.svg"
   id="svg16"
   version="1.1"
   viewBox="0 0 30 30"
   height="30"
   width="30">
  <metadata
     id="metadata22">
    <rdf:RDF>
      <cc:Work
         rdf:about="">
        <dc:format>image/svg+xml</dc:format>
        <dc:type
           rdf:resource="http://purl.org/dc/dcmitype/StillImage" />
        <dc:title>Icon-Architecture/32/Arch_AWS-Glue_32</dc:title>
      </cc:Work>
    </rdf:RDF>
  </metadata>
  <defs
     id="defs20" />
  <sodipodi:namedview
     inkscape:current-layer="svg16"
     inkscape:window-maximized="0"
     inkscape:window-y="25"
     inkscape:window-x="156"
     inkscape:cy="22.693016"
     inkscape:cx="15.407605"
     inkscape:zoom="7.6632787"
     showgrid="false"
     id="namedview18"
     inkscape:window-height="830"
     inkscape:window-width="1191"
     inkscape:pageshadow="2"
     inkscape:pageopacity="0"
     guidetolerance="10"
     gridtolerance="10"
     objecttolerance="10"
     borderopacity="1"
     bordercolor="#666666"
     pagecolor="#ffffff" />
  <title
     id="title10">Icon-Architecture/32/Arch_AWS-Glue_32</title>
  <g
     transform="scale(0.75)"
     fill-rule="evenodd"
     fill="none"
     stroke-width="1"
     stroke="none"
     id="Icon-Architecture/32/Arch_AWS-Glue_32">
    <g
       fill="#8c4fff"
       id="Icon-Architecture-BG/32/Analytics">
      <rect
         height="40"
         width="40"
         y="0"
         x="0"
         id="Rectangle" />
    </g>
    <path
       fill="#ffffff"
       id="AWS-Glue_Icon_32_Squid"
       d="m 27.163,15.543019 c -1.839,0.411691 -4.673,0.49483 -6.663,0.49483 -1.977,0 -4.785,-0.08214 -6.625,-0.485815 l 5.539,8.196759 c 0.056,0.08314 0.086,0.181304 0.086,0.281472 v 1.067792 c 0.701,0.20234 1.349,0.205345 2,0.007 v -1.074804 c 0,-0.10117 0.03,-0.199335 0.087,-0.282474 z m 1.69,-0.771295 0.03,0.02003 -6.383,9.391764 v 1.276142 c 0,0.204343 -0.124,0.388653 -0.314,0.464781 -0.545,0.219368 -1.093,0.328551 -1.653,0.328551 -0.556,0 -1.121,-0.108182 -1.706,-0.323543 C 18.631,25.857332 18.5,25.669016 18.5,25.459664 V 24.183522 L 12.105,14.718635 C 12.043,14.622473 12,14.520302 12,14.410117 c 0,-1.425393 4.692,-1.688835 7.488,-1.719887 l 0.012,1.001681 c -3.343,0.03606 -5.421,0.409688 -6.212,0.699174 0.943,0.30952 3.533,0.645083 7.212,0.645083 3.45,0 5.943,-0.295496 7.017,-0.586985 -0.5,-0.133224 -1.416,-0.31553 -3.078,-0.518871 l 0.121,-0.99467 c 4.122,0.503846 4.44,0.928559 4.44,1.474475 0,0.13122 -0.06,0.25042 -0.147,0.361607 z M 16.5,11.008407 h 1 v -1.001681 h -1 z m -1,0.500841 V 9.5058849 c 0,-0.2774658 0.224,-0.5008407 0.5,-0.5008407 h 2 c 0.276,0 0.5,0.2233749 0.5,0.5008407 v 2.0033631 c 0,0.276464 -0.224,0.50084 -0.5,0.50084 h -2 c -0.276,0 -0.5,-0.224376 -0.5,-0.50084 z m 5,-3.5058852 h 1 V 7.0016814 h -1 z m -1,0.5008407 V 6.5008407 C 19.5,6.2233749 19.724,6 20,6 h 2 c 0.276,0 0.5,0.2233749 0.5,0.5008407 v 2.0033628 c 0,0.2764641 -0.224,0.5008407 -0.5,0.5008407 h -2 c -0.276,0 -0.5,-0.2243766 -0.5,-0.5008407 z m 2,4.5075665 h 1 v -1.001682 h -1 z M 21,11.008407 h 2 c 0.276,0 0.5,0.223375 0.5,0.500841 v 2.003362 c 0,0.276465 -0.224,0.500841 -0.5,0.500841 h -2 c -0.276,0 -0.5,-0.224376 -0.5,-0.500841 v -2.003362 c 0,-0.277466 0.224,-0.500841 0.5,-0.500841 z m 3.424,18.324759 c 0.081,0.1783 0.05,0.388653 -0.079,0.5359 l -3.469,3.959647 C 20.781,33.937896 20.643,34 20.5,34 20.356,34 20.219,33.9379 20.124,33.828713 l -3.469,-3.959647 c -0.129,-0.147247 -0.16,-0.3576 -0.079,-0.5359 0.081,-0.180302 0.259,-0.294494 0.455,-0.294494 h 1.453 v -1.001681 h 1 v 1.502522 c 0,0.276464 -0.223,0.50084 -0.5,0.50084 h -0.849 l 2.365,2.69853 2.365,-2.69853 H 22 c -0.276,0 -0.5,-0.224376 -0.5,-0.50084 v -1.502522 h 1 v 1.001681 h 1.469 c 0.196,0 0.374,0.114192 0.455,0.294494 z" />
  </g>
</svg>
