<?xml version="1.0" encoding="UTF-8" standalone="no"?>
<svg
   xmlns:dc="http://purl.org/dc/elements/1.1/"
   xmlns:cc="http://creativecommons.org/ns#"
   xmlns:rdf="http://www.w3.org/1999/02/22-rdf-syntax-ns#"
   xmlns:svg="http://www.w3.org/2000/svg"
   xmlns="http://www.w3.org/2000/svg"
   xmlns:sodipodi="http://sodipodi.sourceforge.net/DTD/sodipodi-0.dtd"
   xmlns:inkscape="http://www.inkscape.org/namespaces/inkscape"
   inkscape:version="1.0 (4035a4f, 2020-05-01)"
   sodipodi:docname="Arch_Amazon-SageMaker_32.svg"
   id="svg16"
   version="1.1"
   viewBox="0 0 30 30"
   height="30"
   width="30">
  <metadata
     id="metadata22">
    <rdf:RDF>
      <cc:Work
         rdf:about="">
        <dc:format>image/svg+xml</dc:format>
        <dc:type
           rdf:resource="http://purl.org/dc/dcmitype/StillImage" />
        <dc:title>Icon-Architecture/32/Arch_Amazon-SageMaker_32</dc:title>
      </cc:Work>
    </rdf:RDF>
  </metadata>
  <defs
     id="defs20" />
  <sodipodi:namedview
     inkscape:current-layer="svg16"
     inkscape:window-maximized="0"
     inkscape:window-y="31"
     inkscape:window-x="109"
     inkscape:cy="18.731826"
     inkscape:cx="16.815212"
     inkscape:zoom="10.959889"
     showgrid="false"
     id="namedview18"
     inkscape:window-height="775"
     inkscape:window-width="1331"
     inkscape:pageshadow="2"
     inkscape:pageopacity="0"
     guidetolerance="10"
     gridtolerance="10"
     objecttolerance="10"
     borderopacity="1"
     bordercolor="#666666"
     pagecolor="#ffffff" />
  <title
     id="title10">Icon-Architecture/32/Arch_Amazon-SageMaker_32</title>
  <g
     transform="scale(0.75)"
     fill-rule="evenodd"
     fill="none"
     stroke-width="1"
     stroke="none"
     id="Icon-Architecture/32/Arch_Amazon-SageMaker_32">
    <g
       fill="#01a88d"
       id="Icon-Architecture-BG/32/Machine-Learning">
      <rect
         height="40"
         width="40"
         y="0"
         x="0"
         id="Rectangle" />
    </g>
    <path
       fill="#ffffff"
       id="Amazon-SageMaker_Icon_32_Squid"
       d="m 27.214579,12.979563 c 0,0.431989 -0.352541,0.783979 -0.785205,0.783979 -0.433666,0 -0.785206,-0.35199 -0.785206,-0.783979 0,-0.431988 0.35154,-0.783979 0.785206,-0.783979 0.432664,0 0.785205,0.351991 0.785205,0.783979 z m -3.532424,4.979867 c 0,-0.431989 0.35154,-0.783979 0.785206,-0.783979 0.432664,0 0.785205,0.35199 0.785205,0.783979 0,0.431988 -0.352541,0.783979 -0.785205,0.783979 -0.433666,0 -0.785206,-0.351991 -0.785206,-0.783979 z m -0.217334,10.06173 c 0,-0.431988 0.35154,-0.783979 0.784204,-0.783979 0.433666,0 0.785206,0.351991 0.785206,0.783979 0,0.431989 -0.35154,0.783979 -0.785206,0.783979 -0.432664,0 -0.784204,-0.35199 -0.784204,-0.783979 z m 5.832958,-6.975813 c 0,0.431989 -0.35154,0.783979 -0.784205,0.783979 -0.433666,0 -0.785205,-0.35199 -0.785205,-0.783979 0,-0.431988 0.351539,-0.783979 0.785205,-0.783979 0.432665,0 0.784205,0.351991 0.784205,0.783979 z m 3.700683,1.592957 -2.704153,-1.542958 c 0,-0.017 0.005,-0.033 0.005,-0.05 0,-0.982974 -0.801231,-1.783952 -1.785743,-1.783952 -0.985513,0 -1.786744,0.800978 -1.786744,1.783952 0,0.982974 0.801231,1.783952 1.786744,1.783952 0.604929,0 1.138749,-0.303992 1.461245,-0.764979 l 2.572951,1.46896 -2.329578,1.550959 c -0.139214,0.093 -0.223343,0.248993 -0.223343,0.415989 v 3.699901 l -7.001753,3.7289 -3.013628,-1.718954 v -2.688928 h 2.563938 c 0.218335,0.73898 0.895375,1.283965 1.705619,1.283965 0.984512,0 1.786744,-0.800978 1.786744,-1.783952 0,-0.982973 -0.802232,-1.783952 -1.786744,-1.783952 -0.810244,0 -1.487284,0.544985 -1.705619,1.283966 H 19.97946 v -7.020812 c 0,-0.151996 -0.06911,-0.294992 -0.187287,-0.39099 l -2.503845,-1.999946 -0.625962,0.781979 2.315556,1.84895 v 2.462934 l -3.004614,1.634956 v -2.337937 c 0,-0.133996 -0.05308,-0.262993 -0.150231,-0.35699 l -1.89491,-1.852951 V 17.59644 l 2.802304,-1.665956 c 0.152234,-0.091 0.244375,-0.253993 0.244375,-0.429988 v -3.999893 h -1.001538 v 3.7159 l -2.542905,1.51196 -2.484816,-1.50896 v -4.421881 l 1.981042,-1.0749714 v 3.7778984 h 1.001538 V 9.1796652 l 2.074186,-1.1249699 2.974568,1.2439667 10e-4,6.201834 c 0,0.179995 0.09615,0.344991 0.252388,0.433988 l 3.455306,1.970947 c 0,0.019 -0.005,0.035 -0.005,0.054 0,0.982973 0.80123,1.783952 1.786744,1.783952 0.984511,0 1.786743,-0.800979 1.786743,-1.783952 0,-0.982974 -0.802232,-1.783952 -1.786743,-1.783952 -0.603928,0 -1.136746,0.302992 -1.460243,0.761979 l -3.02765,-1.726953 -10e-4,-5.9098421 2.996602,-1.2539664 6.039274,2.7739255 v 1.658956 h -0.878348 c -0.218336,-0.73898 -0.897379,-1.283966 -1.706621,-1.283966 -0.985514,0 -1.786744,0.800979 -1.786744,1.783952 0,0.982974 0.80123,1.783953 1.786744,1.783953 0.809242,0 1.488285,-0.544986 1.706621,-1.283966 h 0.878348 v 2.020946 c 0,0.188995 0.106163,0.36199 0.275423,0.446988 l 3.708696,1.86095 z m -17.01513,10.280725 -2.023107,-1.243967 2.248453,-1.327964 -0.510785,-0.860977 -2.702149,1.596957 -3.0316563,-1.86195 V 25.78022 L 12.198519,24.411257 11.673713,23.55828 9.4763387,24.905244 7.0015381,23.234289 v -2.425936 l 3.2149369,-1.875949 -0.5047749,-0.863977 -2.710162,1.581958 v -1.842951 l 3.4212539,-1.734954 2.503845,1.52096 v 2.635929 l -2.23343,1.444961 0.545839,0.838978 2.125263,-1.375963 1.607469,1.572958 v 2.672928 l -2.22041,1.208967 0.478735,0.877977 5.747827,-3.127916 v 6.867816 z M 33.724577,17.053454 30.015881,15.192504 V 10.50063 c 0,-0.194995 -0.113173,-0.37299 -0.291447,-0.453988 l -6.53103,-2.9999197 c -0.128197,-0.058998 -0.274421,-0.062998 -0.402618,-0.007 L 19.479701,8.4256854 16.167615,7.0397225 c -0.142219,-0.059998 -0.29946,-0.050999 -0.432665,0.021999 l -5.52849,2.9999205 c -0.162249,0.087 -0.2624031,0.255993 -0.2624031,0.438988 v 4.692874 l -3.6696355,1.86095 C 6.106163,17.140452 6,17.312447 6,17.500442 v 5.999839 c 0,0.165996 0.082126,0.320992 0.2203384,0.413989 l 2.7422112,1.851951 v 3.7339 c 0,0.173995 0.090139,0.334991 0.2393676,0.425988 l 6.5099978,3.999893 c 0.08012,0.049 0.171263,0.074 0.261401,0.074 0.08613,0 0.171263,-0.022 0.248382,-0.066 l 3.257001,-1.85795 3.257002,1.85795 c 0.07712,0.044 0.162249,0.066 0.248382,0.066 0.08112,0 0.162249,-0.02 0.236363,-0.059 l 7.511535,-3.999893 c 0.163251,-0.087 0.264406,-0.255993 0.264406,-0.440988 v -3.7319 L 33.777658,23.91627 C 33.915871,23.823273 34,23.667277 34,23.500281 v -5.999839 c 0,-0.188995 -0.106163,-0.36199 -0.275423,-0.446988 z" />
  </g>
</svg>
