<svg width="12" height="14" viewBox="0 0 12 14" fill="none" xmlns="http://www.w3.org/2000/svg">
  <path
    d="M10 9.71998C9.49333 9.71998 9.04 9.91998 8.69333 10.2333L3.94 7.46665C3.97333 7.31331 4 7.15998 4 6.99998C4 6.83998 3.97333 6.68665 3.94 6.53331L8.64 3.79331C9 4.12665 9.47333 4.33331 10 4.33331C11.1067 4.33331 12 3.43998 12 2.33331C12 1.22665 11.1067 0.333313 10 0.333313C8.89333 0.333313 8 1.22665 8 2.33331C8 2.49331 8.02667 2.64665 8.06 2.79998L3.36 5.53998C3 5.20665 2.52667 4.99998 2 4.99998C0.893333 4.99998 0 5.89331 0 6.99998C0 8.10665 0.893333 8.99998 2 8.99998C2.52667 8.99998 3 8.79331 3.36 8.45998L8.10667 11.2266C8.07333 11.3666 8.05333 11.5133 8.05333 11.6666C8.05333 12.74 8.92667 13.6066 10 13.6066C11.0733 13.6066 11.9467 12.74 11.9467 11.6666C11.9467 10.5933 11.0733 9.71998 10 9.71998ZM10 1.66665C10.3667 1.66665 10.6667 1.96665 10.6667 2.33331C10.6667 2.69998 10.3667 2.99998 10 2.99998C9.63333 2.99998 9.33333 2.69998 9.33333 2.33331C9.33333 1.96665 9.63333 1.66665 10 1.66665ZM2 7.66665C1.63333 7.66665 1.33333 7.36665 1.33333 6.99998C1.33333 6.63331 1.63333 6.33331 2 6.33331C2.36667 6.33331 2.66667 6.63331 2.66667 6.99998C2.66667 7.36665 2.36667 7.66665 2 7.66665ZM10 12.3333C9.63333 12.3333 9.33333 12.0333 9.33333 11.6666C9.33333 11.3 9.63333 11 10 11C10.3667 11 10.6667 11.3 10.6667 11.6666C10.6667 12.0333 10.3667 12.3333 10 12.3333Z"
    fill="black" fill-opacity="0.54" />
</svg>
