<?xml version="1.0" encoding="UTF-8" standalone="no"?>
<svg
   xmlns:dc="http://purl.org/dc/elements/1.1/"
   xmlns:cc="http://creativecommons.org/ns#"
   xmlns:rdf="http://www.w3.org/1999/02/22-rdf-syntax-ns#"
   xmlns:svg="http://www.w3.org/2000/svg"
   xmlns="http://www.w3.org/2000/svg"
   xmlns:sodipodi="http://sodipodi.sourceforge.net/DTD/sodipodi-0.dtd"
   xmlns:inkscape="http://www.inkscape.org/namespaces/inkscape"
   inkscape:version="1.0 (4035a4f, 2020-05-01)"
   sodipodi:docname="dk-logo.svg"
   id="svg18"
   version="1.1"
   fill="none"
   viewBox="0 0 30 30"
   height="30"
   width="30">
  <metadata
     id="metadata24">
    <rdf:RDF>
      <cc:Work
         rdf:about="">
        <dc:format>image/svg+xml</dc:format>
        <dc:type
           rdf:resource="http://purl.org/dc/dcmitype/StillImage" />
        <dc:title></dc:title>
      </cc:Work>
    </rdf:RDF>
  </metadata>
  <defs
     id="defs22" />
  <sodipodi:namedview
     inkscape:current-layer="svg18"
     inkscape:window-maximized="0"
     inkscape:window-y="25"
     inkscape:window-x="0"
     inkscape:cy="42.242621"
     inkscape:cx="30.486887"
     inkscape:zoom="2.9400612"
     showgrid="false"
     id="namedview20"
     inkscape:window-height="740"
     inkscape:window-width="1222"
     inkscape:pageshadow="2"
     inkscape:pageopacity="0"
     guidetolerance="10"
     gridtolerance="10"
     objecttolerance="10"
     borderopacity="1"
     bordercolor="#666666"
     pagecolor="#ffffff" />
  <g
     transform="matrix(0.33815772,0,0,0.33815772,1.4736923,-1.4376e-7)"
     id="g30">
    <path
       d="m 67.4861,43.9053 c 0,-1.5389 -0.0913,-2.9873 -0.274,-4.4358 C 66.6642,32.4085 64.9291,26.0716 61.8242,20.64 58.7193,15.1179 54.6098,10.7726 49.4959,7.42315 48.4,6.69894 47.3955,5.97473 46.2083,5.43157 43.7427,4.1642 41.1857,3.16841 38.4461,2.35367 L 0,44.2674 38.5374,86.2718 c 2.6483,-0.8148 5.2966,-1.8106 7.7623,-3.078 0.8218,-0.4526 1.6437,-0.9957 2.4656,-1.5389 5.4793,-3.44 9.954,-7.9663 13.1502,-13.76 3.2876,-5.7937 5.0227,-12.5832 5.3879,-20.278 0.0914,-0.8147 0.0914,-1.6294 0.0914,-2.4442 0,-0.3621 0.0913,-0.6337 0.0913,-0.9958 0,-0.0905 0,-0.0905 0,-0.181 -0.0913,0.0905 0,0 0,-0.0906 z"
       fill="#aad046"
       id="path10" />
    <path
       d="M 38.4461,2.26316 C 34.2453,0.995792 29.6793,0.271579 24.8393,0.090526 22.8302,0.090526 20.7298,0 18.5381,0 H 4.3834 C 1.91774,0 0,1.99158 0,4.34527 V 31.3222 44.2675 Z"
       fill="#06a04a"
       id="path12" />
    <path
       d="m 0,57.2127 v 26.9769 c 0,2.4442 2.00906,4.3453 4.3834,4.3453 h 14.1547 c 2.1917,0 4.2921,0 6.3012,-0.0906 4.84,-0.0905 9.406,-0.9052 13.6068,-2.1726 L 0,44.2674 Z"
       fill="#06a04a"
       id="path14" />
    <path
       d="M 75.6136,0.0905151 H 52.6007 c 0.274,0.1810529 0.4566,0.3621069 0.7306,0.6336859 5.8445,3.983169 10.6845,9.052649 14.2461,15.479999 3.6528,6.5179 5.7532,14.0316 6.3924,22.4506 0.1827,1.72 0.274,3.5305 0.274,5.3411 0,0.0905 0,0.181 0,0.2716 0,0.0905 0,0.0905 0,0.181 0,0.3621 -0.0913,0.7242 -0.0913,1.1769 0,0.9957 -0.0914,1.901 -0.1827,2.8968 -0.4566,9.1432 -2.557,17.2 -6.4838,24.1706 -3.7441,6.6989 -8.8581,11.9495 -15.0679,15.9326 v 0.0906 h 23.1955 c 2.4657,0 4.3834,-1.9916 4.3834,-4.3453 V 4.70737 C 80.0883,2.0821 78.0793,0.0905151 75.6136,0.0905151 Z"
       fill="#aad046"
       id="path16" />
  </g>
</svg>
