<?xml version="1.0" encoding="UTF-8" standalone="no"?>
<svg
   xmlns:dc="http://purl.org/dc/elements/1.1/"
   xmlns:cc="http://creativecommons.org/ns#"
   xmlns:rdf="http://www.w3.org/1999/02/22-rdf-syntax-ns#"
   xmlns:svg="http://www.w3.org/2000/svg"
   xmlns="http://www.w3.org/2000/svg"
   xmlns:sodipodi="http://sodipodi.sourceforge.net/DTD/sodipodi-0.dtd"
   xmlns:inkscape="http://www.inkscape.org/namespaces/inkscape"
   inkscape:version="1.0 (4035a4f, 2020-05-01)"
   sodipodi:docname="datakitchen.svg"
   id="svg48"
   version="1.1"
   fill="none"
   viewBox="0 0 30 30"
   height="30"
   width="30">
  <metadata
     id="metadata52">
    <rdf:RDF>
      <cc:Work
         rdf:about="">
        <dc:format>image/svg+xml</dc:format>
        <dc:type
           rdf:resource="http://purl.org/dc/dcmitype/StillImage" />
        <dc:title></dc:title>
      </cc:Work>
    </rdf:RDF>
  </metadata>
  <sodipodi:namedview
     inkscape:current-layer="svg48"
     inkscape:window-maximized="0"
     inkscape:window-y="25"
     inkscape:window-x="119"
     inkscape:cy="15.891626"
     inkscape:cx="12.203938"
     inkscape:zoom="13.416196"
     showgrid="false"
     id="namedview50"
     inkscape:window-height="763"
     inkscape:window-width="1155"
     inkscape:pageshadow="2"
     inkscape:pageopacity="0"
     guidetolerance="10"
     gridtolerance="10"
     objecttolerance="10"
     borderopacity="1"
     bordercolor="#666666"
     pagecolor="#ffffff" />
  <g
     transform="matrix(1.1553029,0,0,1.1553029,1.1363659,0.02900737)"
     id="g41"
     clip-path="url(#clip0_2192_11760)">
    <path
       id="path33"
       fill="#aad046"
       d="m 20.2458,12.8262 c 0,-0.4496 -0.0274,-0.8727 -0.0822,-1.2959 C 19.9993,9.46756 19.4787,7.61633 18.5473,6.02957 17.6158,4.41638 16.3829,3.14696 14.8488,2.16847 14.52,1.9569 14.2187,1.74534 13.8625,1.58666 13.1228,1.21642 12.3557,0.925514 11.5338,0.6875 L 0,12.932 11.5612,25.2029 c 0.7945,-0.238 1.589,-0.5289 2.3287,-0.8992 0.2466,-0.1322 0.4931,-0.2909 0.7397,-0.4495 1.6438,-1.005 2.9862,-2.3273 3.9451,-4.0198 0.9862,-1.6926 1.5068,-3.676 1.6163,-5.9239 0.0274,-0.238 0.0274,-0.476 0.0274,-0.7141 0,-0.1058 0.0274,-0.1851 0.0274,-0.2909 0,-0.0264 0,-0.0264 0,-0.0529 -0.0274,0.0265 0,0 0,-0.0264 z" />
    <path
       id="path35"
       fill="#06a04a"
       d="M 11.5338,0.661148 C 10.2736,0.290906 8.90379,0.0793377 7.45179,0.0264458 6.84906,0.0264458 6.21894,0 5.56143,0 H 1.31502 C 0.575322,0 0,0.58181 0,1.2694 v 7.88091 3.78179 z" />
    <path
       id="path37"
       fill="#06a04a"
       d="m 0,16.7134 v 7.8809 c 0,0.714 0.602718,1.2694 1.31502,1.2694 h 4.24641 c 0.65751,0 1.28763,0 1.89036,-0.0264 1.452,-0.0265 2.82181,-0.2645 4.08201,-0.6347 L 0,12.9316 Z" />
    <path
       id="path39"
       fill="#aad046"
       d="m 22.6841,0.0263672 h -6.9039 c 0.0822,0.0528918 0.137,0.1057838 0.2192,0.1851218 1.7534,1.163621 3.2054,2.644591 4.2739,4.522251 1.0958,1.9041 1.7259,4.09912 1.9177,6.55856 0.0548,0.5025 0.0822,1.0314 0.0822,1.5604 0,0.0264 0,0.0528 0,0.0793 0,0.0264 0,0.0264 0,0.0529 0,0.1058 -0.0274,0.2115 -0.0274,0.3438 0,0.2909 -0.0274,0.5553 -0.0548,0.8463 -0.137,2.671 -0.7671,5.0247 -1.9452,7.061 -1.1232,1.957 -2.6574,3.4909 -4.5203,4.6545 v 0.0265 h 6.9586 c 0.7397,0 1.315,-0.5819 1.315,-1.2695 V 1.37511 C 24.0265,0.608178 23.4238,0.0263672 22.6841,0.0263672 Z" />
  </g>
  <defs
     id="defs46">
    <clipPath
       id="clip0_2192_11760">
      <rect
         y="0"
         x="0"
         id="rect43"
         fill="#ffffff"
         height="26"
         width="24" />
    </clipPath>
  </defs>
</svg>
