<?xml version="1.0" encoding="UTF-8" standalone="no"?>
<svg
   xmlns:dc="http://purl.org/dc/elements/1.1/"
   xmlns:cc="http://creativecommons.org/ns#"
   xmlns:rdf="http://www.w3.org/1999/02/22-rdf-syntax-ns#"
   xmlns:svg="http://www.w3.org/2000/svg"
   xmlns="http://www.w3.org/2000/svg"
   xmlns:sodipodi="http://sodipodi.sourceforge.net/DTD/sodipodi-0.dtd"
   xmlns:inkscape="http://www.inkscape.org/namespaces/inkscape"
   inkscape:version="1.0 (4035a4f, 2020-05-01)"
   sodipodi:docname="10126-icon-service-Data-Factories.svg"
   version="1.1"
   viewBox="0 0 30 30"
   height="30"
   width="30"
   id="f9ed9690-6753-43a7-8b32-d66ac7b8a99a">
  <metadata
     id="metadata50">
    <rdf:RDF>
      <cc:Work
         rdf:about="">
        <dc:format>image/svg+xml</dc:format>
        <dc:type
           rdf:resource="http://purl.org/dc/dcmitype/StillImage" />
        <dc:title>Icon-databases-126</dc:title>
      </cc:Work>
    </rdf:RDF>
  </metadata>
  <sodipodi:namedview
     inkscape:current-layer="f9ed9690-6753-43a7-8b32-d66ac7b8a99a"
     inkscape:window-maximized="0"
     inkscape:window-y="25"
     inkscape:window-x="0"
     inkscape:cy="19.865815"
     inkscape:cx="-1.0660917"
     inkscape:zoom="8.7440509"
     showgrid="false"
     id="namedview48"
     inkscape:window-height="799"
     inkscape:window-width="1367"
     inkscape:pageshadow="2"
     inkscape:pageopacity="0"
     guidetolerance="10"
     gridtolerance="10"
     objecttolerance="10"
     borderopacity="1"
     bordercolor="#666666"
     pagecolor="#ffffff" />
  <defs
     id="defs25">
    <linearGradient
       gradientUnits="userSpaceOnUse"
       y2="9.7700005"
       x2="9"
       y1="9.7700005"
       x1="0.5"
       id="f710a364-083f-494c-9d96-89b92ee2d5a8">
      <stop
         id="stop10"
         stop-color="#005ba1"
         offset="0" />
      <stop
         id="stop12"
         stop-color="#0060a9"
         offset="0.07" />
      <stop
         id="stop14"
         stop-color="#0071c8"
         offset="0.36" />
      <stop
         id="stop16"
         stop-color="#0078d4"
         offset="0.52" />
      <stop
         id="stop18"
         stop-color="#0074cd"
         offset="0.64" />
      <stop
         id="stop20"
         stop-color="#006abb"
         offset="0.81" />
      <stop
         id="stop22"
         stop-color="#005ba1"
         offset="0.99" />
    </linearGradient>
  </defs>
  <title
     id="title27">Icon-databases-126</title>
  <g
     transform="matrix(1.7646964,0,0,1.7646964,-0.8822676,-0.88234783)"
     id="g45">
    <path
       id="path29"
       fill="#005ba1"
       d="M 13.25,10.48 V 6.57 a 0.14,0.14 0 0 0 -0.24,-0.1 l -4,4 -4.16,4.16 V 17.5 H 16.93 A 0.56,0.56 0 0 0 17.5,16.93 V 6.57 a 0.14,0.14 0 0 0 -0.24,-0.1 z" />
    <path
       style="fill:url(#f710a364-083f-494c-9d96-89b92ee2d5a8)"
       id="path31"
       fill="url(#f710a364-083f-494c-9d96-89b92ee2d5a8)"
       d="M 4.75,3.58 C 2.4,3.58 0.5,2.89 0.5,2 v 5.67 0 9.26 A 0.56,0.56 0 0 0 1.07,17.5 H 9 V 2 C 9,2.89 7.1,3.58 4.75,3.58 Z" />
    <rect
       id="rect33"
       fill="#ffffff"
       rx="0.28"
       height="2.27"
       width="2.27"
       y="12.97"
       x="12.91" />
    <rect
       id="rect35"
       fill="#ffffff"
       rx="0.28"
       height="2.27"
       width="2.27"
       y="12.97"
       x="8.9700003" />
    <rect
       id="rect37"
       fill="#ffffff"
       rx="0.28"
       height="2.27"
       width="2.27"
       y="12.97"
       x="5.0300002" />
    <path
       id="path39"
       fill="#eaeaea"
       d="M 9,2 C 9,2.85 7.1,3.54 4.75,3.54 2.4,3.54 0.5,2.89 0.5,2 0.5,1.11 2.4,0.5 4.75,0.5 7.1,0.5 9,1.19 9,2" />
    <path
       id="path41"
       fill="#50e6ff"
       d="m 8,1.91 c 0,0.55 -1.46,1 -3.26,1 -1.8,0 -3.26,-0.43 -3.26,-1 C 1.48,1.34 3,0.94 4.75,0.94 6.5,0.94 8,1.37 8,1.91" />
    <path
       id="path43"
       fill="#198ab3"
       d="M 4.75,2.14 A 8.07,8.07 0 0 0 2.17,2.51 7.64,7.64 0 0 0 4.75,2.89 7.64,7.64 0 0 0 7.33,2.51 8.07,8.07 0 0 0 4.75,2.14 Z" />
  </g>
</svg>
