<?xml version="1.0" standalone="yes"?><svg xmlns="http://www.w3.org/2000/svg" width="90px" height="90px" viewBox="0 0 90 90" fill="none" style="zoom: 1;"><path d="M86.19,3.74 C88.3187,5.76368 89.6674,8.47181 90,11.39 C89.9702,12.6575 89.6266,13.8978 89,15 C88.26,16.54 79.23,32.17 76.54,36.48 C75.0003,39.0373 74.1846,41.965 74.18,44.95 C74.1737,47.9334 74.9903,50.8607 76.54,53.41 C79.19,57.7 88.22,73.41 89,75 C89.6147,76.0527 89.9584,77.2416 90,78.46 C89.6193,81.3242 88.3066,83.9836 86.2643,86.0277 C84.2221,88.0717 81.5639,89.3868 78.7,89.77 C77.4606,89.7297 76.2535,89.3642 75.2,88.71 C73.74,88 57.79,79.19 53.47,76.5 C53.15,76.34 52.82,76.1 52.41,75.93 L31.09,63.32 C31.5455,67.4143 33.3833,71.2309 36.3,74.14 C36.859,74.6987 37.4572,75.2167 38.09,75.69 C37.5574,75.9283 37.0398,76.1988 36.54,76.5 C32.23,79.19 16.52,88.22 15,89 C13.9018,89.6362 12.659,89.9805 11.39,90 C8.50046,89.7092 5.81442,88.3804 3.83,86.26 C1.69884,84.2398 0.343537,81.5363 0,78.62 C0.0647854,77.3847 0.428539,76.1837 1.06,75.12 C1.79,73.57 10.82,57.87 13.51,53.55 C15.0641,51.0026 15.881,48.074 15.87,45.09 C15.8797,42.103 15.0629,39.1716 13.51,36.62 C10.82,32.15 1.71,16.44 1.06,14.89 C0.425939,13.8275 0.061986,12.6258 0,11.39 C0.314569,8.48135 1.63782,5.7747 3.74,3.74 C5.7747,1.63782 8.48135,0.314569 11.39,0 C12.6588,0.0712787 13.8941,0.433998 15,1.06 C16.3,1.63 27.77,8.3 33.88,11.88 L35.26,12.7 C35.6533,12.9649 36.0606,13.2086 36.48,13.43 L37.13,13.84 L58.84,26.7 C58.5909,24.275 57.8495,21.9262 56.6614,19.7976 C55.4733,17.6689 53.8633,15.805 51.93,14.32 C52.4603,14.0835 52.9747,13.8129 53.47,13.51 C57.79,10.82 73.47,1.71 75.04,1.06 C76.1278,0.417179 77.3576,0.0530581 78.62,0 C81.5003,0.332523 84.1758,1.65441 86.19,3.74 M46.19,50.79 L50.83,46.15 C50.9837,46.0025 51.1059,45.8255 51.1894,45.6296 C51.273,45.4337 51.316,45.223 51.316,45.01 C51.316,44.797 51.273,44.5863 51.1894,44.3904 C51.1059,44.1945 50.9837,44.0175 50.83,43.87 L46.19,39.23 C46.0425,39.0763 45.8655,38.9541 45.6696,38.8706 C45.4737,38.787 45.263,38.744 45.05,38.744 C44.837,38.744 44.6263,38.787 44.4304,38.8706 C44.2345,38.9541 44.0575,39.0763 43.91,39.23 L39.27,43.87 C39.1163,44.0175 38.9941,44.1945 38.9106,44.3904 C38.827,44.5863 38.784,44.797 38.784,45.01 C38.784,45.223 38.827,45.4337 38.9106,45.6296 C38.9941,45.8255 39.1163,46.0025 39.27,46.15 L43.91,50.79 C44.2227,51.0556 44.6197,51.2015 45.03,51.2015 C45.4403,51.2015 45.8373,51.0556 46.15,50.79 H46.19 " fill="#FF694A"></path></svg>
