<?xml version="1.0" encoding="UTF-8" standalone="no"?>
<svg
   xmlns:dc="http://purl.org/dc/elements/1.1/"
   xmlns:cc="http://creativecommons.org/ns#"
   xmlns:rdf="http://www.w3.org/1999/02/22-rdf-syntax-ns#"
   xmlns:svg="http://www.w3.org/2000/svg"
   xmlns="http://www.w3.org/2000/svg"
   xmlns:sodipodi="http://sodipodi.sourceforge.net/DTD/sodipodi-0.dtd"
   xmlns:inkscape="http://www.inkscape.org/namespaces/inkscape"
   inkscape:version="1.0 (4035a4f, 2020-05-01)"
   height="30"
   width="30"
   sodipodi:docname="goanywhere-mft.svg"
   version="1.1"
   viewBox="0 0 30.000001 29.999999"
   data-name="Layer 1"
   id="e327e782-a272-4198-a8bc-111eb6df169c">
  <metadata
     id="metadata28">
    <rdf:RDF>
      <cc:Work
         rdf:about="">
        <dc:format>image/svg+xml</dc:format>
        <dc:type
           rdf:resource="http://purl.org/dc/dcmitype/StillImage" />
        <dc:title>ga-logo-icon</dc:title>
      </cc:Work>
    </rdf:RDF>
  </metadata>
  <defs
     id="defs26" />
  <sodipodi:namedview
     inkscape:current-layer="e327e782-a272-4198-a8bc-111eb6df169c"
     inkscape:window-maximized="0"
     inkscape:window-y="25"
     inkscape:window-x="0"
     inkscape:cy="31.210502"
     inkscape:cx="31.781679"
     inkscape:zoom="7.0649296"
     showgrid="false"
     id="namedview24"
     inkscape:window-height="787"
     inkscape:window-width="1430"
     inkscape:pageshadow="2"
     inkscape:pageopacity="0"
     guidetolerance="10"
     gridtolerance="10"
     objecttolerance="10"
     borderopacity="1"
     bordercolor="#666666"
     pagecolor="#ffffff" />
  <title
     id="title10">ga-logo-icon</title>
  <g
     transform="matrix(0.31759792,0,0,0.31759792,-1.497616e-4,0.0062022)"
     data-name="GoAnywhere HS Solution | Primary Logo"
     id="a85b41ee-3497-487c-a113-6c71346d6907">
    <path
       id="path12"
       fill-rule="evenodd"
       fill="#4a8b2c"
       transform="translate(-2.87,-2.85)"
       d="m 4.4,46.36 42,-42 a 5.24,5.24 0 0 1 7.4,0 l 42,42 a 5.24,5.24 0 0 1 0,7.4 l -42,42 a 5.24,5.24 0 0 1 -7.4,0 l -42,-42 a 5.24,5.24 0 0 1 0,-7.4 z" />
    <path
       id="path14"
       fill-rule="evenodd"
       fill="#ffffff"
       transform="translate(-2.87,-2.85)"
       d="M 8.21,46.66 46.68,8.19 a 4.81,4.81 0 0 1 6.79,0 L 92,46.66 a 4.81,4.81 0 0 1 0,6.79 L 53.47,91.93 a 4.81,4.81 0 0 1 -6.79,0 L 8.21,53.45 a 4.81,4.81 0 0 1 0,-6.79 z m 2.48,0.21 36.19,-36.19 a 4.53,4.53 0 0 1 6.39,0 l 36.19,36.19 a 4.53,4.53 0 0 1 0,6.39 L 53.27,89.45 a 4.53,4.53 0 0 1 -6.38,0 l -36.2,-36.2 a 4.53,4.53 0 0 1 0,-6.38 z" />
    <path
       id="path16"
       fill="#ffffff"
       transform="translate(-2.87,-2.85)"
       d="m 59.37,41.21 a 84.12,84.12 0 0 0 -2.51,-8.52 4.87,4.87 0 0 0 -4.31,-3.23 6.6,6.6 0 0 0 -3.4,1.17 c -1.71,1.16 -5.56,9.05 -6.82,12.82 a 12.47,12.47 0 0 0 0.27,7.62 l -6.75,24.06 2.63,2.87 9.77,-21.5 3.85,6.32 0.54,4.93 -5.11,9 2.13,-0.11 3.64,-5.88 2.7,6.81 4.14,-0.94 -2.06,-12.8 8.43,-13.39 1.08,0.54 L 69,49.3 59.35,41.21 Z m -2,19.52 c 0,0 -3.92,-10.2 -5.62,-12.53 0,0.27 3,-5.38 3,-5.38 l 1.62,2.87 7.26,3.68 z M 42.15,42.49 47.71,30.21 c -1,-2.69 -4,-2.06 -4,-2.06 0,0 -5.78,12.37 -5.71,12.28 1.71,2.78 4.13,2.06 4.13,2.06 z M 56.41,29.91 a 4.48,4.48 0 1 0 -4.49,-4.48 4.49,4.49 0 0 0 4.49,4.48 z" />
    <path
       id="path18"
       fill-rule="evenodd"
       fill="#ffffff"
       transform="translate(-2.87,-2.85)"
       d="M 8.21,46.66 46.68,8.19 a 4.81,4.81 0 0 1 6.79,0 L 92,46.66 a 4.81,4.81 0 0 1 0,6.79 L 53.47,91.93 a 4.81,4.81 0 0 1 -6.79,0 L 8.21,53.45 a 4.81,4.81 0 0 1 0,-6.79 z m 2.48,0.21 36.19,-36.2 a 4.55,4.55 0 0 1 6.39,0 l 36.19,36.2 a 4.51,4.51 0 0 1 0,6.38 L 53.27,89.44 a 4.51,4.51 0 0 1 -6.38,0 L 10.69,53.25 a 4.53,4.53 0 0 1 0,-6.38 z" />
    <path
       id="path20"
       fill="#ffffff"
       transform="translate(-2.87,-2.85)"
       d="m 59.37,41.21 a 84.12,84.12 0 0 0 -2.51,-8.52 4.87,4.87 0 0 0 -4.31,-3.23 6.6,6.6 0 0 0 -3.4,1.17 c -1.71,1.16 -5.56,9.05 -6.82,12.82 a 12.47,12.47 0 0 0 0.27,7.62 l -6.75,24.06 2.63,2.87 9.77,-21.5 3.85,6.32 0.54,4.93 -5.11,9 2.13,-0.11 3.64,-5.88 2.7,6.82 4.14,-1 -2.03,-12.75 8.43,-13.39 1.08,0.54 L 69,49.3 59.35,41.21 Z m -2,19.52 c 0,0 -3.92,-10.2 -5.63,-12.53 0,0.27 3,-5.38 3,-5.38 l 1.62,2.87 7.26,3.68 z M 42.15,42.49 47.71,30.21 c -1,-2.69 -4,-2.06 -4,-2.06 0,0 -5.78,12.37 -5.71,12.28 1.71,2.78 4.13,2.06 4.13,2.06 z M 56.41,29.91 a 4.48,4.48 0 1 0 -4.49,-4.48 4.49,4.49 0 0 0 4.49,4.48 z" />
  </g>
</svg>
