<?xml version="1.0" encoding="UTF-8" standalone="no"?>
<svg
   xmlns:dc="http://purl.org/dc/elements/1.1/"
   xmlns:cc="http://creativecommons.org/ns#"
   xmlns:rdf="http://www.w3.org/1999/02/22-rdf-syntax-ns#"
   xmlns:svg="http://www.w3.org/2000/svg"
   xmlns="http://www.w3.org/2000/svg"
   xmlns:sodipodi="http://sodipodi.sourceforge.net/DTD/sodipodi-0.dtd"
   xmlns:inkscape="http://www.inkscape.org/namespaces/inkscape"
   version="1.0"
   id="katman_1"
   x="0px"
   y="0px"
   viewBox="0 0 30 30"
   xml:space="preserve"
   sodipodi:docname="neo4j.svg"
   width="30"
   height="30"
   inkscape:version="1.0 (4035a4f, 2020-05-01)"><metadata
   id="metadata31"><rdf:RDF><cc:Work
       rdf:about=""><dc:format>image/svg+xml</dc:format><dc:type
         rdf:resource="http://purl.org/dc/dcmitype/StillImage" /><dc:title /></cc:Work></rdf:RDF></metadata><defs
   id="defs29" /><sodipodi:namedview
   inkscape:document-rotation="0"
   pagecolor="#ffffff"
   bordercolor="#666666"
   borderopacity="1"
   objecttolerance="10"
   gridtolerance="10"
   guidetolerance="10"
   inkscape:pageopacity="0"
   inkscape:pageshadow="2"
   inkscape:window-width="1128"
   inkscape:window-height="616"
   id="namedview27"
   showgrid="false"
   inkscape:zoom="7.229198"
   inkscape:cx="26.967302"
   inkscape:cy="20.293471"
   inkscape:window-x="148"
   inkscape:window-y="69"
   inkscape:window-maximized="0"
   inkscape:current-layer="g40" />
<style
   type="text/css"
   id="style10">
	.st0{fill:#010202;}
	.st1{fill:#3F7EC1;}
</style>






<g
   id="g40"
   transform="matrix(0.06752194,0,0,0.06752194,-5.2667103,-0.21606918)"><g
     transform="matrix(3.6063314,0,0,3.6063314,-203.29386,-642.69397)"
     id="g25"><path
       class="st0"
       d="m 160.7,182.6 c -24.2,0 -40.5,13.9 -40.5,41.4 v 16.8 c 2.5,-1.1 5.2,-1.8 7.9,-1.9 2.8,-0.1 5.5,0.6 7.9,1.9 V 224 c 0,-17.7 9.8,-27 24.7,-27 14.9,0 24.7,9.3 24.7,27 v 42.8 h 15.8 V 224 c 0,-27.5 -16.3,-41.4 -40.5,-41.4"
       id="path12" /><path
       class="st1"
       d="m 127.3,246.8 c -2.9,-0.2 -5.8,0.8 -7.9,2.8 l -14.9,-9.8 c 0.4,-1.2 0.6,-2.4 0.5,-3.7 0,-7.5 -6,-13.5 -13.5,-13.5 -7.5,0 -13.5,6 -13.5,13.5 0,7.5 6,13.5 13.5,13.5 2.9,0.1 5.8,-0.9 7.9,-2.8 l 14.9,10.2 c -0.4,1.2 -0.6,2.4 -0.5,3.7 -0.1,1.3 0.1,2.5 0.5,3.7 l -14.9,10.2 c -2.3,-1.8 -5,-2.8 -7.9,-2.8 -7.5,0 -13.5,6 -13.5,13.5 0,7.5 6,13.5 13.5,13.5 7.5,0 13.5,-6 13.5,-13.5 0.1,-1.3 -0.1,-2.5 -0.5,-3.7 l 14.9,-10.2 c 2.3,1.8 5.1,2.8 7.9,2.8 7.4,0 13.5,-6 13.5,-13.5 0,0 0,0 0,0 0,-7.5 -6,-13.7 -13.5,-13.9"
       id="path24" /></g></g>
</svg>
