<?xml version="1.0" encoding="UTF-8" standalone="no"?>
<svg
   xmlns:dc="http://purl.org/dc/elements/1.1/"
   xmlns:cc="http://creativecommons.org/ns#"
   xmlns:rdf="http://www.w3.org/1999/02/22-rdf-syntax-ns#"
   xmlns:svg="http://www.w3.org/2000/svg"
   xmlns="http://www.w3.org/2000/svg"
   xmlns:sodipodi="http://sodipodi.sourceforge.net/DTD/sodipodi-0.dtd"
   xmlns:inkscape="http://www.inkscape.org/namespaces/inkscape"
   inkscape:version="1.0 (4035a4f, 2020-05-01)"
   sodipodi:docname="Arch_Amazon-Simple-Queue-Service_32.svg"
   id="svg16"
   version="1.1"
   viewBox="0 0 30 30"
   height="30"
   width="30">
  <metadata
     id="metadata22">
    <rdf:RDF>
      <cc:Work
         rdf:about="">
        <dc:format>image/svg+xml</dc:format>
        <dc:type
           rdf:resource="http://purl.org/dc/dcmitype/StillImage" />
        <dc:title>Icon-Architecture/32/Arch_Amazon-Simple-Queue-Service_32</dc:title>
      </cc:Work>
    </rdf:RDF>
  </metadata>
  <defs
     id="defs20" />
  <sodipodi:namedview
     inkscape:current-layer="svg16"
     inkscape:window-maximized="0"
     inkscape:window-y="25"
     inkscape:window-x="0"
     inkscape:cy="19.097257"
     inkscape:cx="13.588296"
     inkscape:zoom="9.3733456"
     showgrid="false"
     id="namedview18"
     inkscape:window-height="807"
     inkscape:window-width="1170"
     inkscape:pageshadow="2"
     inkscape:pageopacity="0"
     guidetolerance="10"
     gridtolerance="10"
     objecttolerance="10"
     borderopacity="1"
     bordercolor="#666666"
     pagecolor="#ffffff" />
  <title
     id="title10">Icon-Architecture/32/Arch_Amazon-Simple-Queue-Service_32</title>
  <g
     transform="scale(0.75)"
     fill-rule="evenodd"
     fill="none"
     stroke-width="1"
     stroke="none"
     id="Icon-Architecture/32/Arch_Amazon-Simple-Queue-Service_32">
    <g
       fill="#e7157b"
       id="Icon-Architecture-BG/32/Application-Integration">
      <rect
         height="40"
         width="40"
         y="0"
         x="0"
         id="Rectangle" />
    </g>
    <path
       fill="#ffffff"
       id="AWS-Simple-Queue-Service_Icon_32_Squid"
       d="m 14.342205,22.349379 1.504472,-1.443272 c 0.09616,-0.09195 0.150246,-0.218889 0.153251,-0.350822 0.002,-0.132933 -0.04808,-0.261868 -0.14023,-0.35682 l -1.504472,-1.555215 -0.720183,0.694649 0.676111,0.699647 h -2.319811 v 0.999495 h 2.273735 l -0.617013,0.591702 z m 12.01574,0.004 1.549546,-1.453266 c 0.09916,-0.09195 0.155255,-0.220888 0.157258,-0.35582 0.002,-0.134932 -0.05108,-0.265866 -0.14624,-0.360818 l -1.549546,-1.546219 -0.708163,0.706643 0.69414,0.69365 h -2.34385 v 0.999495 h 2.287758 l -0.62703,0.587703 z m -8.770408,1.007492 c 0.751234,-0.303847 1.574586,-0.466765 2.41697,-0.466765 0.842384,0 1.665737,0.162918 2.416971,0.466765 -0.669099,-1.771106 -0.669099,-3.970995 0,-5.742101 -1.502468,0.607694 -3.331473,0.607694 -4.833941,0 0.669099,1.771106 0.669099,3.970995 0,5.742101 z m -1.943193,1.98 c -0.09816,-0.09695 -0.147242,-0.224887 -0.147242,-0.352822 0,-0.127935 0.04908,-0.255871 0.147242,-0.353821 1.940188,-1.936023 1.940188,-6.351793 0,-8.288814 -0.09816,-0.09695 -0.147242,-0.224887 -0.147242,-0.35282 0,-0.127938 0.04908,-0.255873 0.147242,-0.353824 0.195321,-0.194901 0.512843,-0.194901 0.708164,0 0.921514,0.919536 2.252701,1.44727 3.651999,1.44727 1.400301,0 2.731488,-0.527734 3.653002,-1.44727 0.195321,-0.194901 0.512842,-0.194901 0.708163,0 0.09716,0.09795 0.14624,0.225886 0.14624,0.353824 0,0.127933 -0.04908,0.255868 -0.14624,0.35282 -1.941189,1.937021 -1.941189,6.352791 0,8.288814 0.09716,0.09795 0.14624,0.225886 0.14624,0.353821 0,0.127935 -0.04908,0.255871 -0.14624,0.352822 -0.09816,0.09795 -0.226372,0.146926 -0.354582,0.146926 -0.128211,0 -0.256422,-0.04898 -0.353581,-0.146926 -0.921514,-0.919536 -2.252701,-1.447269 -3.653002,-1.447269 -1.399298,0 -2.730485,0.527733 -3.651999,1.447269 -0.195321,0.194901 -0.512843,0.194901 -0.708164,0 z M 32.542105,19.43585 c -0.305502,-0.303847 -0.705159,-0.45577 -1.105817,-0.45577 -0.399656,0 -0.799313,0.151923 -1.104815,0.45577 -0.610002,0.608692 -0.610002,1.598193 0,2.205886 0.610002,0.608693 1.60063,0.608693 2.210632,0 0.609,-0.607693 0.609,-1.597194 0,-2.205886 z m 0.708163,2.913529 c -0.499821,0.498748 -1.1569,0.748622 -1.81398,0.748622 -0.656078,0 -1.313157,-0.249874 -1.812978,-0.748622 -0.999643,-0.998496 -0.999643,-2.621677 0,-3.620172 0.999642,-0.997497 2.627316,-0.997497 3.626958,0 0.999643,0.998495 0.999643,2.621676 0,3.620172 z M 9.6685269,19.446844 c -0.3055019,-0.303846 -0.7051585,-0.45577 -1.1058167,-0.45577 -0.3996566,0 -0.7993132,0.151924 -1.1048151,0.45577 -0.6090005,0.608693 -0.6090005,1.598193 0,2.205886 0.6100022,0.608693 1.6006296,0.608693 2.2106318,0 0.6090001,-0.607693 0.6090001,-1.597193 0,-2.205886 z m 0.7081631,2.912529 c -0.4998209,0.498749 -1.1569004,0.748622 -1.8139798,0.748622 -0.6560779,0 -1.3131574,-0.249873 -1.8129785,-0.748622 -0.9996423,-0.997496 -0.9996423,-2.620676 0,-3.619172 0.9996423,-0.997496 2.6273163,-0.997496 3.6269583,0 0.999643,0.998496 0.999643,2.621676 0,3.619172 z m 17.057022,6.550692 c -1.997281,1.992994 -4.651642,3.09044 -7.476282,3.09044 -2.82464,0 -5.479001,-1.097446 -7.475281,-3.09044 -1.316162,-1.312337 -2.074408,-2.440767 -2.537168,-3.774094 l -0.946555,0.326835 c 0.5088359,1.46626 1.364241,2.747613 2.77556,4.153903 C 13.958575,31.798607 16.866352,33 19.95743,33 c 3.09208,0 5.998855,-1.201393 8.184446,-3.383291 1.140874,-1.138426 2.278744,-2.429773 2.869714,-4.155902 L 30.064034,25.13797 c -0.524863,1.532227 -1.574587,2.718627 -2.630322,3.772095 z M 9.944981,15.859656 8.998426,15.531821 c 0.5118409,-1.467259 1.367246,-2.748611 2.777563,-4.155901 4.51041,-4.500727 11.850469,-4.5017265 16.36188,0 1.080776,1.077456 2.265723,2.413781 2.873721,4.155901 l -0.947556,0.327835 C 29.524147,14.309439 28.429348,13.08006 27.429706,12.082563 25.434428,10.091569 22.781069,8.996122 19.95743,8.996122 c -2.823639,0 -5.476998,1.095447 -7.472276,3.086441 -1.298132,1.295346 -2.081419,2.459758 -2.540173,3.777093 z" />
  </g>
</svg>
