<svg width="14" height="13" viewBox="0 0 14 13" fill="none" xmlns="http://www.w3.org/2000/svg">
  <path
    d="M6.99998 5.66665C6.26665 5.66665 5.66665 6.26665 5.66665 6.99998C5.66665 7.73331 6.26665 8.33331 6.99998 8.33331C7.73331 8.33331 8.33331 7.73331 8.33331 6.99998C8.33331 6.26665 7.73331 5.66665 6.99998 5.66665ZM11 6.99998C11 4.79998 9.19998 2.99998 6.99998 2.99998C4.79998 2.99998 2.99998 4.79998 2.99998 6.99998C2.99998 8.46665 3.79998 9.73331 4.99998 10.4666L5.66665 9.33331C4.86665 8.86665 4.33331 7.99998 4.33331 7.06665C4.33331 5.59998 5.53331 4.39998 6.99998 4.39998C8.46665 4.39998 9.66665 5.59998 9.66665 7.06665C9.66665 8.06665 9.13331 8.93331 8.33331 9.33331L8.99998 10.4666C10.2 9.79998 11 8.46665 11 6.99998ZM6.99998 0.333313C3.33331 0.333313 0.333313 3.33331 0.333313 6.99998C0.333313 9.46665 1.66665 11.6 3.66665 12.7333L4.33331 11.6C2.73331 10.6666 1.66665 8.93331 1.66665 6.99998C1.66665 4.06665 4.06665 1.66665 6.99998 1.66665C9.93331 1.66665 12.3333 4.06665 12.3333 6.99998C12.3333 8.99998 11.2666 10.6666 9.66665 11.6L10.3333 12.7333C12.3333 11.6 13.6666 9.46665 13.6666 6.99998C13.6666 3.33331 10.6666 0.333313 6.99998 0.333313Z"
    fill="black" fill-opacity="0.54" />
</svg>
