<?xml version="1.0" encoding="UTF-8" standalone="no"?>
<svg
   xmlns:dc="http://purl.org/dc/elements/1.1/"
   xmlns:cc="http://creativecommons.org/ns#"
   xmlns:rdf="http://www.w3.org/1999/02/22-rdf-syntax-ns#"
   xmlns:svg="http://www.w3.org/2000/svg"
   xmlns="http://www.w3.org/2000/svg"
   xmlns:sodipodi="http://sodipodi.sourceforge.net/DTD/sodipodi-0.dtd"
   xmlns:inkscape="http://www.inkscape.org/namespaces/inkscape"
   inkscape:version="1.0 (4035a4f, 2020-05-01)"
   sodipodi:docname="tableau-software.svg"
   id="svg26"
   version="1.1"
   viewBox="0 0 0.7236 0.72355087"
   width="30"
   height="30">
  <metadata
     id="metadata32">
    <rdf:RDF>
      <cc:Work
         rdf:about="">
        <dc:format>image/svg+xml</dc:format>
        <dc:type
           rdf:resource="http://purl.org/dc/dcmitype/StillImage" />
        <dc:title></dc:title>
      </cc:Work>
    </rdf:RDF>
  </metadata>
  <defs
     id="defs30" />
  <sodipodi:namedview
     inkscape:current-layer="svg26"
     inkscape:window-maximized="0"
     inkscape:window-y="25"
     inkscape:window-x="0"
     inkscape:cy="-8.5660985"
     inkscape:cx="53.954129"
     inkscape:zoom="2.8952836"
     showgrid="false"
     id="namedview28"
     inkscape:window-height="812"
     inkscape:window-width="1440"
     inkscape:pageshadow="2"
     inkscape:pageopacity="0"
     guidetolerance="10"
     gridtolerance="10"
     objecttolerance="10"
     borderopacity="1"
     bordercolor="#666666"
     pagecolor="#ffffff" />
  <g
     transform="matrix(0.012,0,0,0.012,0,0.00477544)"
     id="g42">
    <path
       d="m 28.5,40.2 h 3.3 v -9 h 8.3 V 28 h -8.3 v -9 h -3.3 v 9 h -8.2 v 3.2 h 8.2 z"
       fill="#e8762d"
       id="path10" />
    <path
       d="M 13.2,53.2 H 16 v -8 h 7.4 V 42.7 H 16 v -8.1 h -2.8 v 8.1 H 5.8 v 2.5 h 7.4 z"
       fill="#c72037"
       id="path12" />
    <path
       d="m 44.3,24.3 h 2.8 v -8 h 7.5 V 13.9 H 47.1 V 5.8 h -2.8 v 8.1 h -7.4 v 2.4 h 7.4 z"
       fill="#5b879b"
       id="path14" />
    <path
       d="m 29,59.5 h 2.4 v -5.7 h 5.1 V 51.7 H 31.4 V 46 H 29 v 5.7 h -5 v 2.1 h 5 z"
       fill="#5c6692"
       id="path16" />
    <path
       d="m 13.3,24.3 h 2.6 v -8.1 h 7.5 V 13.9 H 15.9 V 5.8 h -2.6 v 8.1 H 5.8 v 2.3 h 7.5 z"
       fill="#eb9129"
       id="path18" />
    <path
       d="m 52.8,36.3 h 2.4 v -5.6 h 5.1 v -2.2 h -5.1 v -5.6 h -2.4 v 5.6 h -5 v 2.2 h 5 z"
       fill="#5c6692"
       id="path20" />
    <path
       clip-rule="evenodd"
       d="m 44.3,53.2 h 2.8 v -8 h 7.5 v -2.5 h -7.5 v -8.1 h -2.8 v 8.1 h -7.4 v 2.5 h 7.4 z"
       fill="#1f457e"
       fill-rule="evenodd"
       id="path22" />
    <path
       d="M 36.1,7.2 V 5.5 h -5 V 0 h -1.8 v 5.5 h -5 v 1.7 h 5 v 5.5 h 1.8 V 7.2 Z M 5,35.9 h 1.8 v -5.5 h 5 v -1.7 h -5 V 23.3 H 5 v 5.4 H 0 v 1.8 l 5,-0.1 z"
       fill="#7199a6"
       id="path24" />
  </g>
</svg>
